<svg width="57" height="57" viewBox="0 0 57 57" fill="none" xmlns="http://www.w3.org/2000/svg">
<circle cx="28.5" cy="28.5" r="28.5" fill="#FF9B32"/>
<path d="M32.5204 35.9706C33.3402 35.9706 33.8891 36.8274 33.5326 37.5652C32.6845 39.3211 30.8869 40.5319 28.8061 40.5319C26.7258 40.5319 24.9282 39.3211 24.0797 37.5652C23.7231 36.8269 24.272 35.9706 25.0919 35.9706C25.5222 35.9706 25.9108 36.2198 26.0997 36.6064C26.5888 37.6075 27.6171 38.2967 28.8061 38.2967C29.9951 38.2967 31.0234 37.6075 31.5125 36.6064C31.7014 36.2198 32.09 35.9706 32.5204 35.9706ZM39.6122 19.4972C39.6122 20.2394 39.4869 20.9519 39.2557 21.6154L37.1463 28.5742C36.6936 30.0673 34.8532 30.62 33.6686 29.6049C32.361 28.4848 30.6625 27.8082 28.8061 27.8082C24.6897 27.8082 21.3504 31.1344 21.3286 35.2454C21.3067 39.3449 24.5275 42.6652 28.6259 42.7618C30.9996 42.8177 33.1299 41.7671 34.5375 40.0899C34.9596 39.5872 35.7207 39.5527 36.1846 40.0171C36.5906 40.4231 36.628 41.0754 36.2594 41.516C34.4773 43.6454 31.8 45 28.8061 45C23.3953 45 19.0176 40.5761 19.0933 35.1478C19.121 33.1447 19.7646 31.2835 20.8409 29.7448L20.823 29.7516L18.357 21.6154C18.1248 20.95 18 20.2418 18 19.4972C18 16.0584 20.6957 13.25 24.0889 13.0678C25.2031 11.8667 26.7661 11.0871 28.5021 11.007C30.492 10.9157 32.293 11.7283 33.5331 13.0683C36.9219 13.2553 39.6122 16.0618 39.6122 19.4972ZM35.6814 25.8105C33.7507 24.4073 31.3755 23.5791 28.8061 23.5791C26.2372 23.5791 23.8616 24.4068 21.9309 25.81L22.5414 27.8617L22.5472 27.8738C24.221 26.457 26.3751 25.5934 28.7192 25.573C31.14 25.5516 33.3587 26.4162 35.0708 27.8621L35.6814 25.8105ZM37.3765 19.4972C37.3765 17.8346 36.4109 16.3984 35.0106 15.7164C35.1626 16.2648 35.2452 16.8423 35.2452 17.4393C35.2452 18.5496 34.9596 19.6007 34.4632 20.5148C34.2689 20.8727 33.8974 21.0986 33.4898 21.0986H33.4554C32.6092 21.0986 32.0924 20.1928 32.498 19.4506C32.8239 18.8532 33.0095 18.1678 33.0095 17.4393C33.0095 15.017 30.9607 13.0732 28.5016 13.2466C26.4086 13.3942 24.7261 15.1035 24.6091 17.1983C24.5639 18.0085 24.748 18.7725 25.1031 19.4312C25.5091 20.1845 24.9816 21.0991 24.1253 21.0991C23.7159 21.0991 23.3399 20.8747 23.1413 20.5162C22.5909 19.5205 22.316 18.3801 22.3734 17.1357C22.3957 16.6466 22.4753 16.1715 22.6026 15.7159C21.2013 16.3974 20.2352 17.8346 20.2352 19.4977C20.2352 19.9028 20.2926 20.2943 20.3994 20.6644L21.2596 23.5544C23.4351 22.1521 26.0254 21.3371 28.8061 21.3371C31.5868 21.3371 34.1771 22.1521 36.3526 23.5544L37.2128 20.6639C37.3192 20.2938 37.3765 19.9023 37.3765 19.4972Z" fill="#87189D"/>
</svg>
